<svg width="512" height="512" viewBox="0 0 512 512" fill="none" xmlns="http://www.w3.org/2000/svg">
<g clip-path="url(#clip0_10_31)">
<rect width="512" height="512" rx="60" fill="#27291E"/>
<g clip-path="url(#clip1_10_31)">
<path d="M423.692 112.817C402.746 91.871 375.017 80.4231 345.422 80.4231C315.827 80.4231 288.012 91.9558 267.067 112.901L256.128 123.84L245.019 112.732C224.074 91.7862 196.174 80.1687 166.579 80.1687C137.069 80.1687 109.255 91.7014 88.3944 112.562C67.4489 133.508 55.9162 161.322 56.001 190.917C56.001 220.512 67.6185 248.241 88.564 269.187L247.817 428.44C250.022 430.645 252.99 431.832 255.873 431.832C258.757 431.832 261.724 430.73 263.929 428.525L423.522 269.526C444.467 248.58 456 220.766 456 191.171C456.085 161.576 444.637 133.762 423.692 112.817ZM407.41 253.329L255.873 404.272L104.676 253.075C88.0552 236.454 78.8968 214.406 78.8968 190.917C78.8968 167.427 87.9704 145.38 104.591 128.844C121.127 112.308 143.175 103.149 166.579 103.149C190.069 103.149 212.202 112.308 228.822 128.928L247.987 148.093C252.481 152.587 259.689 152.587 264.184 148.093L283.179 129.098C299.799 112.477 321.932 103.319 345.337 103.319C368.741 103.319 390.789 112.477 407.41 129.013C424.031 145.634 433.104 167.682 433.104 191.171C433.189 214.661 424.031 236.709 407.41 253.329Z" fill="#E4E5D6"/>
</g>
</g>
<defs>
<clipPath id="clip0_10_31">
<rect width="512" height="512" fill="white"/>
</clipPath>
<clipPath id="clip1_10_31">
<rect width="400" height="400" fill="white" transform="translate(56 56)"/>
</clipPath>
</defs>
</svg>
